ffmpeg started on 2025-06-30 at 14:34:28
Report written to "D:\Convert\FFMetrics\reports\ssim_report-6.txt"
Log level: 32
Command line:
ffmpeg -hide_banner -nostdin -i "G:\\\xc0\xed\xe8\xec\xe5\\\xce\xed\xe3\xee\xe8\xed\xe3\xe8\\!_37_\xc7\xe8\xec\xe0_2025\\JamClub\\\xc3\xee\xf1\xef\xee\xe4\xe8\xed \xe8 \xef\xb8\xf1\\JamClub_Tono_to_Inu_Woof_Woof!_S01E02_1080p_HEVC.mkv" -i "G:\\\xc0\xed\xe8\xec\xe5\\\xce\xed\xe3\xee\xe8\xed\xe3\xe8\\!_37_\xc7\xe8\xec\xe0_2025\\JamClub\\\xc3\xee\xf1\xef\xee\xe4\xe8\xed \xe8 \xef\xb8\xf1\\JamClub_Tono_to_Inu_Woof_Woof!_S01E02_1080p.mp4" -lavfi "[0:v]settb=AVTB,setpts=PTS-STARTPTS,format=pix_fmts=yuv420p10,fps=24000/1001,scale=1920:1080:flags=bicubic[main];[1:v]settb=AVTB,setpts=PTS-STARTPTS,format=pix_fmts=yuv420p,fps=24000/1001,scale=1920:1080:flags=bicubic[ref];[main][ref]ssim=eof_action=endall:stats_file='D\\:/Convert/FFMetrics/logs/ssim_logfile-6.txt'" -f null -
Input #0, matroska,webm, from 'G:\Аниме\Онгоинги\!_37_Зима_2025\JamClub\Господин и пёс\JamClub_Tono_to_Inu_Woof_Woof!_S01E02_1080p_HEVC.mkv':
  Metadata:
    COMPATIBLE_BRANDS: isomiso2avc1mp41
    MAJOR_BRAND     : isom
    MINOR_VERSION   : 512
    ENCODER         : Lavf61.7.100
  Duration: 00:02:58.20, start: -0.021000, bitrate: 1848 kb/s
  Stream #0:0: Video: hevc (Main 10), yuv420p10le(tv, bt709, progressive), 1920x1080 [SAR 1:1 DAR 16:9], 23.98 fps, 23.98 tbr, 1k tbn (default)
      Metadata:
        HANDLER_NAME    : VideoHandler
        VENDOR_ID       : [0][0][0][0]
        ENCODER         : Lavc61.19.100 libx265
        BPS             : 1661420
        DURATION        : 00:02:57.051708333
        NUMBER_OF_FRAMES: 4245
        NUMBER_OF_BYTES : 36769516
        _STATISTICS_WRITING_APP: mkvpropedit v66.0.0 ('Josie') 64-bit
        _STATISTICS_WRITING_DATE_UTC: 2025-06-28 15:41:04
        _STATISTICS_TAGS: BPS DURATION NUMBER_OF_FRAMES NUMBER_OF_BYTES
  Stream #0:1(eng): Audio: aac (LC), 48000 Hz, stereo, fltp (default)
      Metadata:
        HANDLER_NAME    : SoundHandler
        VENDOR_ID       : [0][0][0][0]
        ENCODER         : Lavc61.19.100 aac
        BPS             : 193708
        DURATION        : 00:02:58.179000000
        NUMBER_OF_FRAMES: 8353
        NUMBER_OF_BYTES : 4314348
        _STATISTICS_WRITING_APP: mkvpropedit v66.0.0 ('Josie') 64-bit
        _STATISTICS_WRITING_DATE_UTC: 2025-06-28 15:41:04
        _STATISTICS_TAGS: BPS DURATION NUMBER_OF_FRAMES NUMBER_OF_BYTES
Input #1, mov,mp4,m4a,3gp,3g2,mj2, from 'G:\Аниме\Онгоинги\!_37_Зима_2025\JamClub\Господин и пёс\JamClub_Tono_to_Inu_Woof_Woof!_S01E02_1080p.mp4':
  Metadata:
    major_brand     : isom
    minor_version   : 512
    compatible_brands: isomiso2avc1mp41
    encoder         : Lavf60.16.100
  Duration: 00:02:58.18, start: 0.000000, bitrate: 5239 kb/s
  Stream #1:0[0x1](und): Video: h264 (High) (avc1 / 0x31637661), yuv420p(tv, bt709, progressive), 1920x1080 [SAR 1:1 DAR 16:9], 5073 kb/s, 23.98 fps, 23.98 tbr, 90k tbn (default)
      Metadata:
        handler_name    : VideoHandler
        vendor_id       : [0][0][0][0]
  Stream #1:1[0x2](eng): Audio: aac (LC) (mp4a / 0x6134706D), 48000 Hz, stereo, fltp, 191 kb/s (default)
      Metadata:
        handler_name    : SoundHandler
        vendor_id       : [0][0][0][0]
Stream mapping:
  Stream #0:0 (hevc) -> settb:default
  Stream #1:0 (h264) -> settb:default
  ssim:default -> Stream #0:0 (wrapped_avframe)
  Stream #0:1 -> #0:1 (aac (native) -> pcm_s16le (native))
Output #0, null, to 'pipe:':
  Metadata:
    COMPATIBLE_BRANDS: isomiso2avc1mp41
    MAJOR_BRAND     : isom
    MINOR_VERSION   : 512
    encoder         : Lavf61.7.100
  Stream #0:0: Video: wrapped_avframe, yuv420p10le(tv, bt709, progressive), 1920x1080 [SAR 1:1 DAR 16:9], q=2-31, 200 kb/s, 23.98 fps, 23.98 tbn
      Metadata:
        encoder         : Lavc61.19.100 wrapped_avframe
  Stream #0:1(eng): Audio: pcm_s16le, 48000 Hz, stereo, s16, 1536 kb/s (default)
      Metadata:
        HANDLER_NAME    : SoundHandler
        VENDOR_ID       : [0][0][0][0]
        _STATISTICS_TAGS: BPS DURATION NUMBER_OF_FRAMES NUMBER_OF_BYTES
        BPS             : 193708
        DURATION        : 00:02:58.179000000
        NUMBER_OF_FRAMES: 8353
        NUMBER_OF_BYTES : 4314348
        _STATISTICS_WRITING_APP: mkvpropedit v66.0.0 ('Josie') 64-bit
        _STATISTICS_WRITING_DATE_UTC: 2025-06-28 15:41:04
        encoder         : Lavc61.19.100 pcm_s16le
frame=  118 fps=0.0 q=-0.0 size=N/A time=00:00:04.92 bitrate=N/A speed=9.49x    frame=  281 fps=273 q=-0.0 size=N/A time=00:00:11.72 bitrate=N/A speed=11.4x    frame=  473 fps=307 q=-0.0 size=N/A time=00:00:19.72 bitrate=N/A speed=12.8x    frame=  701 fps=339 q=-0.0 size=N/A time=00:00:29.23 bitrate=N/A speed=14.2x    frame=  931 fps=362 q=-0.0 size=N/A time=00:00:38.83 bitrate=N/A speed=15.1x    frame= 1189 fps=383 q=-0.0 size=N/A time=00:00:49.59 bitrate=N/A speed=  16x    frame= 1416 fps=392 q=-0.0 size=N/A time=00:00:59.05 bitrate=N/A speed=16.4x    frame= 1660 fps=403 q=-0.0 size=N/A time=00:01:09.23 bitrate=N/A speed=16.8x    frame= 1902 fps=410 q=-0.0 size=N/A time=00:01:19.32 bitrate=N/A speed=17.1x    frame= 2143 fps=415 q=-0.0 size=N/A time=00:01:29.38 bitrate=N/A speed=17.3x    frame= 2344 fps=413 q=-0.0 size=N/A time=00:01:37.76 bitrate=N/A speed=17.2x    frame= 2558 fps=413 q=-0.0 size=N/A time=00:01:46.68 bitrate=N/A speed=17.2x    frame= 2777 fps=415 q=-0.0 size=N/A time=00:01:55.82 bitrate=N/A speed=17.3x    frame= 2986 fps=413 q=-0.0 size=N/A time=00:02:04.54 bitrate=N/A speed=17.2x    frame= 3148 fps=407 q=-0.0 size=N/A time=00:02:11.29 bitrate=N/A speed=  17x    frame= 3368 fps=408 q=-0.0 size=N/A time=00:02:20.47 bitrate=N/A speed=  17x    frame= 3561 fps=406 q=-0.0 size=N/A time=00:02:28.52 bitrate=N/A speed=16.9x    frame= 3752 fps=404 q=-0.0 size=N/A time=00:02:36.48 bitrate=N/A speed=16.8x    frame= 3940 fps=402 q=-0.0 size=N/A time=00:02:44.33 bitrate=N/A speed=16.8x    frame= 4159 fps=403 q=-0.0 size=N/A time=00:02:53.46 bitrate=N/A speed=16.8x    [Parsed_ssim_10 @ 0000026b6566b500] SSIM Y:0.993863 (22.120453) U:0.993217 (21.685487) V:0.993847 (22.109115) All:0.993753 (22.043007)
[out#0/null @ 0000026b64f6eec0] video:1824KiB audio:33412KiB subtitle:0KiB other streams:0KiB global headers:0KiB muxing overhead: unknown
frame= 4245 fps=404 q=-0.0 Lsize=N/A time=00:02:57.05 bitrate=N/A speed=16.9x    
